<?xml version="1.0" standalone="no"?>
<!DOCTYPE svg PUBLIC "-//W3C//DTD SVG 20010904//EN"
 "http://www.w3.org/TR/2001/REC-SVG-20010904/DTD/svg10.dtd">
<svg version="1.0" xmlns="http://www.w3.org/2000/svg"
 width="1024.000000pt" height="1024.000000pt" viewBox="0 0 1024.000000 1024.000000"
 preserveAspectRatio="xMidYMid meet">
<metadata>
Created by potrace 1.11, written by Peter Selinger 2001-2013
</metadata>
<g transform="translate(0.000000,1024.000000) scale(0.100000,-0.100000)"
fill="#000000" stroke="none">
<path d="M1283 5123 c0 -3153 2 -3839 13 -3843 7 -3 330 -5 716 -4 l703 1 -1
2599 c0 2305 -4 3021 -19 3869 -5 303 -16 809 -20 910 -1 44 -3 131 -4 193
l-1 112 -693 0 -694 0 0 -3837z"/>
<path d="M3495 8948 c2 -7 6 -24 9 -38 2 -14 32 -146 66 -295 33 -148 63 -281
66 -295 3 -14 16 -74 30 -135 14 -60 28 -119 30 -130 2 -11 10 -49 18 -85 32
-141 58 -256 62 -273 2 -14 63 -286 99 -442 2 -11 15 -69 29 -130 49 -220 97
-437 171 -765 41 -184 77 -344 79 -355 3 -11 14 -63 26 -115 12 -52 30 -131
40 -175 13 -60 111 -499 195 -870 1 -5 5 -21 8 -35 3 -14 15 -65 26 -115 11
-49 29 -128 40 -175 11 -47 23 -101 26 -120 3 -19 12 -62 20 -95 24 -99 62
-269 105 -465 22 -102 52 -232 65 -290 14 -58 31 -134 39 -170 12 -54 36 -164
51 -230 2 -8 10 -45 19 -81 8 -37 17 -78 20 -90 14 -70 27 -129 60 -274 21
-88 39 -171 42 -185 3 -14 12 -54 20 -90 9 -36 18 -76 20 -90 3 -14 14 -62 25
-108 11 -46 24 -102 28 -125 11 -54 40 -181 85 -382 20 -88 38 -169 40 -180 2
-11 12 -51 21 -90 9 -38 18 -79 21 -90 13 -66 17 -81 24 -85 6 -4 1411 -5
1481 -1 20 1 21 -6 -51 306 -27 121 -73 321 -101 445 -27 124 -56 252 -64 285
-14 59 -62 267 -90 395 -9 36 -36 155 -61 265 -52 229 -52 230 -60 270 -2 17
-9 46 -14 65 -11 40 -69 292 -76 330 -3 14 -18 81 -34 150 -46 198 -111 489
-126 560 -8 36 -21 94 -30 130 -9 36 -18 75 -20 88 -3 12 -14 62 -25 110 -12
48 -22 94 -24 102 -5 23 -86 383 -90 400 -2 8 -10 44 -18 80 -27 119 -107 474
-122 535 -8 33 -28 123 -45 200 -17 77 -40 176 -50 220 -10 44 -21 91 -24 105
-2 14 -19 86 -36 160 -17 74 -33 143 -35 153 -2 10 -6 26 -9 35 -3 9 -8 31
-10 47 -3 17 -24 111 -47 210 -23 99 -50 218 -60 265 -10 47 -30 135 -44 195
-15 61 -28 119 -29 130 -2 11 -13 58 -24 105 -11 47 -24 101 -28 120 -10 47
-11 48 -24 105 -6 28 -13 59 -16 70 -2 11 -15 72 -30 135 -14 63 -27 122 -29
130 -2 8 -22 96 -45 195 -23 99 -44 191 -46 205 -3 14 -14 63 -25 110 -12 47
-23 94 -25 105 -2 11 -11 53 -19 93 l-16 72 -744 0 c-591 0 -743 -3 -740 -12z"/>
<path d="M7529 8863 c-3 -488 2 -4779 6 -5083 9 -760 19 -1345 30 -1805 13
-574 17 -690 21 -694 7 -7 1355 -6 1367 1 9 6 12 955 12 3843 l0 3835 -717 0
-718 0 -1 -97z"/>
</g>
</svg>
